# xmcd
# 
# Track frame offsets:
#     150
#     17217
#     29582
#     44875
#     57202
#     70407
#     89200
#     103530
#     118380
#     137950
#     150060
#     162027
#     171690
#     183987
#     200075
#     213020
#     229467
#     244835
#     262177
#     273607
#     284445
# 
# Disc length: 3975
# 
# Revision: 8
# Processed by: cddbd v1.5.2PL0 Copyright (c) Steve Scherf et al.
# Submitted via: fre:ac v1.0.17
# 
DISCID=520f8515
DTITLE=Various Artist - Country Legends [CD2]
DYEAR=2002
DGENRE=Country
TTITLE0=Johnny Cash - A Boy Named Sue
TTITLE1=Dolly Parton - 9 To 5
TTITLE2=Billy Ray Cyrus - Achy Breaky Heart
TTITLE3=Billie Jo Spears - What I've Got In Mind
TTITLE4=Dr. Hook - When You're In Love With A Beautiful Woman
TTITLE5=Kenny Rogers and Dolly Parton - Islands In The Stream
TTITLE6=Glen Campbell - Rhinestone Cowboy
TTITLE7=Olivia Newton John - Take Me Home Country Roads
TTITLE8=Kenny Rogers/ Coward Of The County
TTITLE9=Charlie Rich - The Most Beautiful Girl
TTITLE10=Tammy Wynette - Stand By Your Man
TTITLE11=Ned Miller - From A Jack To A King
TTITLE12=Johnny Cash - I Walk The Line
TTITLE13=Billie Jo Spears - Blanket On The Ground
TTITLE14=Bobby Gentry - I'll Never Fall In Love Again
TTITLE15=Kenny Rogers - Lucille
TTITLE16=Don McLean - Crazy
TTITLE17=Kenny Rogers and Sheena Easton - We've Got Tonight
TTITLE18=Crystal Gayle - Don't It Make My Brown Eyes Blue
TTITLE19=Jim Reeves - He'll Have To Go
TTITLE20=Willie Nelson - Funny How Time Slips Away
EXTD=YEAR: 2002
EXTT0=
EXTT1=
EXTT2=
EXTT3=
EXTT4=
EXTT5=
EXTT6=
EXTT7=
EXTT8=
EXTT9=
EXTT10=
EXTT11=
EXTT12=
EXTT13=
EXTT14=
EXTT15=
EXTT16=
EXTT17=
EXTT18=
EXTT19=
EXTT20=
PLAYORDER=
